<?xml version="1.0" encoding="UTF-8"?>
<!DOCTYPE svg PUBLIC "-//W3C//DTD SVG 1.1//EN" "http://www.w3.org/Graphics/SVG/1.1/DTD/svg11.dtd">
<!-- Creator: CorelDRAW 2021 (64-Bit) -->
<svg xmlns="http://www.w3.org/2000/svg" xml:space="preserve" width="84.6666mm" height="84.6666mm" version="1.1" style="shape-rendering:geometricPrecision; text-rendering:geometricPrecision; image-rendering:optimizeQuality; fill-rule:evenodd; clip-rule:evenodd"
viewBox="0 0 8466.66 8466.66"
 xmlns:xlink="http://www.w3.org/1999/xlink"
 xmlns:xodm="http://www.corel.com/coreldraw/odm/2003">
 <defs>
  <style type="text/css">
   <![CDATA[
    .fil0 {fill:black;fill-rule:nonzero}
   ]]>
  </style>
 </defs>
 <g id="Capa_x0020_1">
  <metadata id="CorelCorpID_0Corel-Layer"/>
  <path class="fil0" d="M4153.81 2086.4c-134.74,-24.46 -263.02,-37.28 -382.3,-37.28l-1443.28 0 0 1135.44 1653.66 0 0 1225.17 -1653.66 0 0 2179.69c0,134.64 9,250.11 29.55,345.11l-1277.81 0c19.18,-95 29.46,-213.01 29.46,-352.84l0 -5374.17c0,-130.83 -10.28,-248.84 -29.46,-354.02l3073.84 0 0 1232.9zm3879.62 3239.3c0,501.67 -141.1,912.15 -420.85,1232.9 -306.56,341.29 -704.32,511.85 -1195.62,511.85 -1017.34,0 -1525.38,-719.68 -1525.38,-2157.87l1338.09 0c-20.54,115.46 -30.82,233.56 -30.82,354.12 -5.18,379.75 78.28,570.94 247.56,570.94 201.47,0 301.48,-162.92 301.48,-488.85 0,-310.47 -150.1,-620.95 -451.58,-931.33 -195.01,-186.11 -481.03,-472.12 -856.96,-857.06 -305.3,-336.11 -458.03,-711.95 -458.03,-1127.62 0,-476.03 123.19,-872.42 368.2,-1187.99 265.57,-351.56 626.14,-526.03 1082.8,-526.03 510.58,0 899.33,187.29 1164.9,563.22 225.83,320.75 347.66,749.23 368.2,1285.45l-1300.9 0c15.45,-60.28 23.09,-123.1 23.09,-187.29 0,-306.65 -70.55,-459.3 -210.38,-459.3 -150.1,0 -225.83,107.82 -225.83,323.29 0,241.2 155.28,509.31 465.76,804.42 481.03,456.76 767.14,741.5 856.96,856.96 306.66,410.58 459.31,885.24 459.31,1420.19z"/>
 </g>
</svg>
